<?xml version="1.0" encoding="iso-8859-1" standalone="yes"?><svg xmlns="http://www.w3.org/2000/svg" xmlns:xlink="http://www.w3.org/1999/xlink" version="1.1" id="Capa_1" x="0px" y="0px" viewBox="0 0 480 480" fill="#b1b1b1" style="enable-background:new 0 0 480 480;zoom: 1;" xml:space="preserve"><g><g><g><rect x="184" y="328" width="16" height="32"></rect><rect x="216" y="328" width="16" height="32"></rect><rect x="248" y="328" width="16" height="32"></rect><rect x="280" y="328" width="16" height="32"></rect><rect x="312" y="328" width="16" height="32"></rect><rect x="152" y="328" width="16" height="32"></rect><path d="M480,128v-16h-40V80c-0.026-22.08-17.92-39.974-40-40h-32V0h-16v40h-32V0h-16v40h-32V0h-16v40h-32V0h-16v40h-32V0h-16v40 h-32V0h-16v40H80c-22.08,0.026-39.974,17.92-40,40v32H0v16h40v32H0v16h40v32H0v16h40v32H0v16h40v32H0v16h40v32H0v16h40v32 c0.026,22.08,17.92,39.974,40,40h32v40h16v-40h32v40h16v-40h32v40h16v-40h32v40h16v-40h32v40h16v-40h32v40h16v-40h32 c22.08-0.026,39.974-17.92,40-40v-32h40v-16h-40v-32h40v-16h-40v-32h40v-16h-40v-32h40v-16h-40v-32h40v-16h-40v-32H480z M424,400 c0,13.255-10.745,24-24,24H80c-13.255,0-24-10.745-24-24V80c0-13.255,10.745-24,24-24h320c13.255,0,24,10.745,24,24V400z"></path><path d="M88,392 h304 V88 H88 V392  z M104,104 h272 v272 H104 V104  z "></path><path d="M184,160c0-13.255-10.745-24-24-24s-24,10.745-24,24s10.745,24,24,24S184,173.255,184,160z M152,160c0-4.418,3.582-8,8-8 s8,3.582,8,8s-3.582,8-8,8S152,164.418,152,160z"></path><rect x="160" y="200" width="176" height="16"></rect><rect x="160" y="232" width="144" height="16"></rect><rect x="160" y="264" width="64" height="16"></rect><rect x="240" y="264" width="16" height="16"></rect><rect x="320" y="232" width="16" height="16"></rect></g></g></g></svg>